<svg width="101" height="100" viewBox="0 0 101 100" fill="none" xmlns="http://www.w3.org/2000/svg">
<rect x="0.25" width="100" height="100" rx="50" fill="#EBF7FF"/>
<g clip-path="url(#clip0_32_1141)">
<path d="M64.621 27.3594C63.3791 26.1755 61.7851 25.6097 60.1809 25.6097C58.38 25.6097 56.5481 26.3326 55.1922 27.7051L54.6127 28.2918L54.0227 27.7051C52.667 26.3326 50.835 25.6097 49.0342 25.6097C47.4299 25.6097 45.836 26.1755 44.5941 27.3594C41.8617 29.9681 41.8099 34.3265 44.4492 36.9981L54.6127 47.2864L64.7762 36.9981C67.405 34.3265 67.3533 29.9681 64.621 27.3594Z" fill="#2AA7FF"/>
<path d="M74.5979 52.5249C73.0351 51.4562 71.1929 51.7601 69.5679 52.7136C67.9327 53.6565 58.5765 61.7551 58.5765 61.7551H49.3651C48.9407 61.7551 48.475 61.2627 48.475 60.8331C48.475 60.3303 48.9098 59.9321 49.3651 59.9321H54.9954C56.9722 59.9321 59.1767 58.6329 59.1767 56.3176C59.1767 53.8555 56.9722 52.7031 54.9954 52.7031C51.5696 52.7031 50.9072 52.7136 50.9072 52.7136C49.5411 52.7136 48.1438 52.6296 47.0778 52.0534C45.6495 51.3096 44.0039 50.8905 42.2444 50.8905C39.2948 50.8905 36.6555 52.0849 34.8443 53.9603L25.25 63.5466L35.9621 74.3903L39.5328 70.7757H57.6035C59.4044 70.7757 61.1432 70.1051 62.4783 68.9004L74.7118 55.0079C75.4673 54.327 75.4156 53.0906 74.5979 52.5249Z" fill="#2AA7FF"/>
</g>
<defs>
<clipPath id="clip0_32_1141">
<rect width="50" height="50" fill="white" transform="translate(25.25 25)"/>
</clipPath>
</defs>
</svg>
