<svg width="60" height="60" viewBox="0 0 60 60" fill="none" xmlns="http://www.w3.org/2000/svg">
<path d="M33.75 18.75H26.25C25.2146 18.75 24.375 17.9104 24.375 16.875V13.125C24.375 10.0232 26.8982 7.5 30 7.5C33.1018 7.5 35.625 10.0232 35.625 13.125V16.875C35.625 17.9104 34.7854 18.75 33.75 18.75ZM28.125 15H31.875V13.125C31.875 12.0913 31.0337 11.25 30 11.25C28.9663 11.25 28.125 12.0913 28.125 13.125V15Z" fill="#2AA7FF"/>
<path d="M39.375 15H9.375C6.27319 15 3.75 17.5232 3.75 20.625V43.125C3.75 46.2268 6.27319 48.75 9.375 48.75H13.125V45H9.375C8.34131 45 7.5 44.1587 7.5 43.125V20.625C7.5 19.5913 8.34131 18.75 9.375 18.75H39.375C46.6123 18.75 52.5 24.6377 52.5 31.875V43.125C52.5 44.1587 51.6587 45 50.625 45H46.875V48.75H50.625C53.7268 48.75 56.25 46.2268 56.25 43.125V31.875C56.25 22.5705 48.6795 15 39.375 15Z" fill="#2AA7FF"/>
<path d="M39.375 45H20.625V48.75H39.375V45Z" fill="#2AA7FF"/>
<path d="M16.875 52.5C13.7732 52.5 11.25 49.9768 11.25 46.875C11.25 43.7732 13.7732 41.25 16.875 41.25C19.9768 41.25 22.5 43.7732 22.5 46.875C22.5 49.9768 19.9768 52.5 16.875 52.5ZM16.875 45C15.8413 45 15 45.8413 15 46.875C15 47.9087 15.8413 48.75 16.875 48.75C17.9087 48.75 18.75 47.9087 18.75 46.875C18.75 45.8413 17.9087 45 16.875 45Z" fill="#2AA7FF"/>
<path d="M43.125 52.5C40.0232 52.5 37.5 49.9768 37.5 46.875C37.5 43.7732 40.0232 41.25 43.125 41.25C46.2268 41.25 48.75 43.7732 48.75 46.875C48.75 49.9768 46.2268 52.5 43.125 52.5ZM43.125 45C42.0913 45 41.25 45.8413 41.25 46.875C41.25 47.9087 42.0913 48.75 43.125 48.75C44.1587 48.75 45 47.9087 45 46.875C45 45.8413 44.1587 45 43.125 45Z" fill="#2AA7FF"/>
<path d="M24.375 28.125H20.625V24.375C20.625 23.3396 19.7854 22.5 18.75 22.5C17.7146 22.5 16.875 23.3396 16.875 24.375V28.125H13.125C12.0896 28.125 11.25 28.9646 11.25 30C11.25 31.0354 12.0896 31.875 13.125 31.875H16.875V35.625C16.875 36.6604 17.7146 37.5 18.75 37.5C19.7854 37.5 20.625 36.6604 20.625 35.625V31.875H24.375C25.4104 31.875 26.25 31.0354 26.25 30C26.25 28.9646 25.4104 28.125 24.375 28.125Z" fill="#2AA7FF"/>
<path d="M46.875 37.5H35.625C34.5896 37.5 33.75 36.6604 33.75 35.625V24.375C33.75 23.3396 34.5896 22.5 35.625 22.5H39.375C44.544 22.5 48.75 26.706 48.75 31.875V35.625C48.75 36.6604 47.9104 37.5 46.875 37.5ZM37.5 33.75H45V31.875C45 28.7732 42.4768 26.25 39.375 26.25H37.5V33.75Z" fill="#2AA7FF"/>
</svg>
