<svg width="111" height="110" viewBox="0 0 111 110" fill="none" xmlns="http://www.w3.org/2000/svg">
<rect x="0.75" width="110" height="110" rx="50" fill="#FFF2F0"/>
<path d="M78.25 81.25H55.75C54.7146 81.25 53.875 80.4104 53.875 79.375V30.625C53.875 29.5896 54.7146 28.75 55.75 28.75H78.25C79.2854 28.75 80.125 29.5896 80.125 30.625V79.375C80.125 80.4104 79.2854 81.25 78.25 81.25ZM57.625 77.5H76.375V32.5H57.625V77.5Z" fill="#FF684C"/>
<path d="M70.75 81.25H63.25C62.2146 81.25 61.375 80.4104 61.375 79.375V68.125C61.375 67.0896 62.2146 66.25 63.25 66.25H70.75C71.7854 66.25 72.625 67.0896 72.625 68.125V79.375C72.625 80.4104 71.7854 81.25 70.75 81.25ZM65.125 77.5H68.875V70H65.125V77.5Z" fill="#FF684C"/>
<path d="M55.75 81.25H33.25C32.2146 81.25 31.375 80.4104 31.375 79.375V49.375C31.375 48.3396 32.2146 47.5 33.25 47.5H55.75C56.7854 47.5 57.625 48.3396 57.625 49.375V79.375C57.625 80.4104 56.7854 81.25 55.75 81.25ZM35.125 77.5H53.875V51.25H35.125V77.5Z" fill="#FF684C"/>
<path d="M70.75 40H68.875V38.125C68.875 37.0896 68.0354 36.25 67 36.25C65.9646 36.25 65.125 37.0896 65.125 38.125V40H63.25C62.2146 40 61.375 40.8396 61.375 41.875C61.375 42.9104 62.2146 43.75 63.25 43.75H65.125V45.625C65.125 46.6604 65.9646 47.5 67 47.5C68.0354 47.5 68.875 46.6604 68.875 45.625V43.75H70.75C71.7854 43.75 72.625 42.9104 72.625 41.875C72.625 40.8396 71.7854 40 70.75 40Z" fill="#FF684C"/>
<path d="M40.75 62.5C39.7146 62.5 38.875 61.6604 38.875 60.625V56.875C38.875 55.8396 39.7146 55 40.75 55C41.7854 55 42.625 55.8396 42.625 56.875V60.625C42.625 61.6604 41.7854 62.5 40.75 62.5Z" fill="#FF684C"/>
<path d="M40.75 73.75C39.7146 73.75 38.875 72.9104 38.875 71.875V68.125C38.875 67.0896 39.7146 66.25 40.75 66.25C41.7854 66.25 42.625 67.0896 42.625 68.125V71.875C42.625 72.9104 41.7854 73.75 40.75 73.75Z" fill="#FF684C"/>
<path d="M48.25 62.5C47.2146 62.5 46.375 61.6604 46.375 60.625V56.875C46.375 55.8396 47.2146 55 48.25 55C49.2854 55 50.125 55.8396 50.125 56.875V60.625C50.125 61.6604 49.2854 62.5 48.25 62.5Z" fill="#FF684C"/>
<path d="M48.25 73.75C47.2146 73.75 46.375 72.9104 46.375 71.875V68.125C46.375 67.0896 47.2146 66.25 48.25 66.25C49.2854 66.25 50.125 67.0896 50.125 68.125V71.875C50.125 72.9104 49.2854 73.75 48.25 73.75Z" fill="#FF684C"/>
<path d="M70.75 62.5H63.25C62.2146 62.5 61.375 61.6604 61.375 60.625C61.375 59.5896 62.2146 58.75 63.25 58.75H70.75C71.7854 58.75 72.625 59.5896 72.625 60.625C72.625 61.6604 71.7854 62.5 70.75 62.5Z" fill="#FF684C"/>
</svg>
