<svg width="111" height="110" viewBox="0 0 111 110" fill="none" xmlns="http://www.w3.org/2000/svg">
<rect x="0.25" width="110" height="110" rx="50" fill="#FFF7E6"/>
<path d="M59 62.5H66.5V79.375H70.25V60.625C70.25 59.5887 69.4113 58.75 68.375 58.75H57.125C56.0887 58.75 55.25 59.5887 55.25 60.625V79.375H59V62.5Z" fill="#FFB200"/>
<path d="M75.875 43.75H66.5V47.5H74V77.5H36.5V47.5H44V43.75H34.625C33.5887 43.75 32.75 44.5887 32.75 45.625V79.375C32.75 80.4113 33.5887 81.25 34.625 81.25H75.875C76.9113 81.25 77.75 80.4113 77.75 79.375V45.625C77.75 44.5887 76.9113 43.75 75.875 43.75Z" fill="#FFB200"/>
<path d="M44 43.75H32.75V40H44V36.25H30.875C29.8387 36.25 29 37.0887 29 38.125V45.625C29 46.6613 29.8387 47.5 30.875 47.5H44V43.75Z" fill="#FFB200"/>
<path d="M79.625 36.25H66.5V40H77.75V43.75H66.5V47.5H79.625C80.6613 47.5 81.5 46.6613 81.5 45.625V38.125C81.5 37.0887 80.6613 36.25 79.625 36.25Z" fill="#FFB200"/>
<path d="M66.5 55H44C42.9637 55 42.125 54.1613 42.125 53.125V30.625C42.125 29.5887 42.9637 28.75 44 28.75H66.5C67.5363 28.75 68.375 29.5887 68.375 30.625V53.125C68.375 54.1613 67.5363 55 66.5 55ZM45.875 51.25H64.625V32.5H45.875V51.25Z" fill="#FFB200"/>
<path d="M59 40H57.125V38.125C57.125 37.0887 56.2863 36.25 55.25 36.25C54.2137 36.25 53.375 37.0887 53.375 38.125V40H51.5C50.4637 40 49.625 40.8387 49.625 41.875C49.625 42.9113 50.4637 43.75 51.5 43.75H53.375V45.625C53.375 46.6613 54.2137 47.5 55.25 47.5C56.2863 47.5 57.125 46.6613 57.125 45.625V43.75H59C60.0363 43.75 60.875 42.9113 60.875 41.875C60.875 40.8387 60.0363 40 59 40Z" fill="#FFB200"/>
<path d="M49.625 70H42.125C41.0887 70 40.25 69.1613 40.25 68.125V64.375C40.25 61.2732 42.7732 58.75 45.875 58.75C48.9768 58.75 51.5 61.2732 51.5 64.375V68.125C51.5 69.1613 50.6613 70 49.625 70ZM44 66.25H47.75V64.375C47.75 63.3404 46.9096 62.5 45.875 62.5C44.8404 62.5 44 63.3404 44 64.375V66.25Z" fill="#FFB200"/>
</svg>
