<svg width="80" height="80" viewBox="0 0 80 80" fill="none" xmlns="http://www.w3.org/2000/svg">
<path d="M45 50H55V72.5H60V47.5C60 46.1183 58.8818 45 57.5 45H42.5C41.1183 45 40 46.1183 40 47.5V72.5H45V50Z" fill="#2AA7FF"/>
<path d="M67.5 25H55V30H65V70H15V30H25V25H12.5C11.1183 25 10 26.1183 10 27.5V72.5C10 73.8817 11.1183 75 12.5 75H67.5C68.8817 75 70 73.8817 70 72.5V27.5C70 26.1183 68.8817 25 67.5 25Z" fill="#2AA7FF"/>
<path d="M25 25H10V20H25V15H7.5C6.11825 15 5 16.1183 5 17.5V27.5C5 28.8818 6.11825 30 7.5 30H25V25Z" fill="#2AA7FF"/>
<path d="M72.5 15H55V20H70V25H55V30H72.5C73.8818 30 75 28.8818 75 27.5V17.5C75 16.1183 73.8818 15 72.5 15Z" fill="#2AA7FF"/>
<path d="M55 40H25C23.6183 40 22.5 38.8817 22.5 37.5V7.5C22.5 6.11825 23.6183 5 25 5H55C56.3817 5 57.5 6.11825 57.5 7.5V37.5C57.5 38.8817 56.3817 40 55 40ZM27.5 35H52.5V10H27.5V35Z" fill="#2AA7FF"/>
<path d="M45 20H42.5V17.5C42.5 16.1183 41.3818 15 40 15C38.6182 15 37.5 16.1183 37.5 17.5V20H35C33.6183 20 32.5 21.1182 32.5 22.5C32.5 23.8818 33.6183 25 35 25H37.5V27.5C37.5 28.8818 38.6182 30 40 30C41.3818 30 42.5 28.8818 42.5 27.5V25H45C46.3818 25 47.5 23.8818 47.5 22.5C47.5 21.1182 46.3818 20 45 20Z" fill="#2AA7FF"/>
<path d="M32.5 60H22.5C21.1183 60 20 58.8818 20 57.5V52.5C20 48.3643 23.3643 45 27.5 45C31.6357 45 35 48.3643 35 52.5V57.5C35 58.8818 33.8818 60 32.5 60ZM25 55H30V52.5C30 51.1205 28.8795 50 27.5 50C26.1205 50 25 51.1205 25 52.5V55Z" fill="#2AA7FF"/>
</svg>
