<svg width="101" height="100" viewBox="0 0 101 100" fill="none" xmlns="http://www.w3.org/2000/svg">
<rect x="0.75" width="100" height="100" rx="50" fill="#EBFAF1"/>
<g clip-path="url(#clip0_32_1188)">
<path d="M35.6171 61.1389C35.9562 60.8055 36.3229 60.5463 36.6987 60.3519C36.8453 60.0185 37.0928 59.7408 37.3953 59.5648C37.4136 58.2315 37.6153 57.0833 37.9911 56.1296C33.6923 58.3333 30.75 62.8333 30.75 68.0278C30.75 74.6759 35.5529 75 41.8407 75C42.5282 75 43.234 75 43.9489 75H57.5419C58.2569 75 58.9626 75 59.6501 75C65.9379 75 70.75 74.6759 70.75 68.0278C70.75 62.7778 67.7436 58.2315 63.3715 56.0555C63.7931 57.0463 64.0405 58.25 64.0955 59.6481C65.5255 59.9815 66.5979 61.2685 66.5979 62.8148C66.5979 64.6111 65.1496 66.0648 63.3806 66.0648C61.6024 66.0648 60.1634 64.6111 60.1634 62.8148C60.1634 61.287 61.2083 60.0093 62.6106 59.6574C62.5465 58.2685 62.2257 56.1574 60.8784 55.1111C60.1909 54.9259 59.4851 54.7963 58.761 54.7315C58.706 57.1666 50.75 63.1666 50.75 63.1666C50.75 63.1666 42.794 57.1666 42.739 54.7315C41.9324 54.8055 41.1533 54.9536 40.3925 55.1666C39.4118 55.9536 38.9076 57.4166 38.8801 59.537C39.1643 59.7036 39.4026 59.9629 39.5401 60.287C40.5942 60.787 41.5291 61.8519 42.244 63.3611C42.3632 63.6204 42.3815 63.9074 42.2899 64.1666C42.7207 65.2778 42.959 66.5 42.959 67.5185C42.959 68.9536 42.959 70.3055 41.41 70.6574C41.245 70.7963 41.0341 70.8796 40.8142 70.8796H39.7968C39.2743 70.8796 38.8527 70.4536 38.8527 69.9259V69.8611C38.8893 69.3704 39.3018 68.9815 39.7876 68.9815H40.8233C40.9333 68.9815 41.0341 69 41.135 69.037C41.1991 69.0185 41.2175 69 41.2175 69C41.3366 68.7963 41.3366 67.9351 41.3366 67.5278C41.3366 66.6944 41.135 65.6944 40.7683 64.7593C40.585 64.6481 40.4292 64.4908 40.3375 64.2963C39.7143 62.9721 38.8618 62.1111 38.1652 62.1111C37.4594 62.1111 36.5612 63.037 35.9379 64.4166C35.8371 64.6389 35.6538 64.824 35.4338 64.9351C35.1038 65.824 34.9296 66.75 34.9296 67.5278C34.9296 67.8704 34.9296 68.787 35.058 69.0093C35.058 69.0093 35.0855 69.0278 35.168 69.0463C35.2779 69.0093 35.3879 68.9815 35.5071 68.9815H36.5429C37.0195 68.9815 37.4228 69.3425 37.4778 69.824L37.4869 69.8333V69.8981C37.4869 70.4629 37.0653 70.8889 36.552 70.8889H35.5071C35.3054 70.8889 35.1038 70.8148 34.9388 70.6944C34.343 70.5833 33.9306 70.3148 33.6648 69.8889C33.344 69.3704 33.289 68.6851 33.289 67.537C33.289 66.5278 33.5181 65.3611 33.9397 64.2408C33.8756 64 33.8939 63.75 34.0039 63.5278C34.4439 62.5648 35.003 61.7408 35.6171 61.1389ZM57.1845 69H64.1139C64.6639 69 65.1037 69.4444 65.1037 70C65.1037 70.5555 64.6639 71 64.1139 71H57.1845C56.6345 71 56.1945 70.5555 56.1945 70C56.1945 69.4444 56.6345 69 57.1845 69Z" fill="#4CD080"/>
<path d="M60.5666 39.6482C60.1084 39.6482 59.43 39.4909 58.7243 38.7316C58.1926 38.315 54.6913 35.6668 50.75 35.6668C46.8361 35.6668 43.298 38.3242 42.7756 38.7316C42.0698 39.4816 41.3916 39.639 40.9333 39.639C40.8691 39.639 40.8141 39.639 40.7591 39.6297C40.475 39.602 40.1725 39.5001 39.8975 39.3242C39.8059 39.9075 39.7509 40.5001 39.7509 41.1112C39.7509 47.2501 44.6821 56.4909 50.7591 56.4909C56.8361 56.4909 61.7674 47.2501 61.7674 41.1112C61.7674 40.5001 61.7124 39.9075 61.6208 39.3242C61.3458 39.5094 61.0341 39.6112 60.75 39.639C60.6858 39.6482 60.6308 39.6482 60.5666 39.6482Z" fill="#4CD080"/>
<path d="M63.3805 64.3241C64.2006 64.3241 64.8654 63.6526 64.8654 62.8241C64.8654 61.9957 64.2006 61.3241 63.3805 61.3241C62.5604 61.3241 61.8956 61.9957 61.8956 62.8241C61.8956 63.6526 62.5604 64.3241 63.3805 64.3241Z" fill="#4CD080"/>
<path d="M59.1641 26.6759C59.1641 26.6759 55.1404 25.213 51.5106 25.0278C51.254 25.0185 51.0065 25 50.7499 25C50.4933 25 50.2458 25.0185 49.9891 25.0185C46.3594 25.213 42.3356 26.6667 42.3356 26.6667C41.2448 27.0648 40.3557 28.3519 40.3557 29.5278V37.0741C40.3557 37.75 40.5665 38.1111 40.8873 38.1389C40.9057 38.1389 40.9148 38.1389 40.9332 38.1389C41.1623 38.1389 41.4465 37.9815 41.7581 37.6296C41.7581 37.6296 45.9011 34.1667 50.7499 34.1667C55.5986 34.1667 59.7416 37.6296 59.7416 37.6296C60.0532 37.9815 60.3374 38.1389 60.5665 38.1389C60.5849 38.1389 60.594 38.1389 60.6124 38.1389C60.9331 38.1111 61.144 37.75 61.144 37.0741V29.537C61.144 28.3611 60.2549 27.0648 59.1641 26.6759ZM53.353 30.6389H51.7856V32.2407C51.7856 32.4074 51.6665 32.537 51.529 32.537H49.9799C49.8333 32.537 49.7233 32.4074 49.7233 32.2407V30.6389H48.1559C48.0001 30.6389 47.8718 30.5185 47.8718 30.3704V28.787C47.8718 28.6389 48.0001 28.5185 48.1559 28.5185H49.7233V26.9259C49.7233 26.7593 49.8424 26.6296 49.9799 26.6296H51.529C51.6756 26.6296 51.7856 26.7593 51.7856 26.9259V28.5278H53.353C53.5087 28.5278 53.6371 28.6481 53.6371 28.7963V30.3704C53.6371 30.5185 53.5087 30.6389 53.353 30.6389Z" fill="#4CD080"/>
</g>
<defs>
<clipPath id="clip0_32_1188">
<rect width="50" height="50" fill="white" transform="translate(25.75 25)"/>
</clipPath>
</defs>
</svg>
