<svg width="46" height="54" viewBox="0 0 46 54" fill="none" xmlns="http://www.w3.org/2000/svg">
<path d="M30.6778 26.1514L23 36.8987L15.3223 26.1514L11.9801 27.8226C12.0239 27.9109 12.0406 28.0069 12.0997 28.0896L21.4747 41.2146C21.8263 41.7071 22.3938 42 23 42C23.6062 42 24.1738 41.7071 24.5253 41.2146L33.9003 28.0896C33.9596 28.0069 33.9761 27.9109 34.0199 27.8226L30.6778 26.1514Z" fill="#2AA7FF"/>
<path d="M40.3181 28.866L30.0515 23.7422C29.2149 24.7057 28.1986 25.4951 27.0358 26.0535C27.2133 26.3588 27.4486 26.6333 27.7882 26.8024L38.6371 32.2168C40.5286 33.1708 41.75 35.1484 41.75 37.2559V49.5002H4.25V37.2559C4.25 35.1484 5.47138 33.1708 7.35538 32.2206L18.2116 26.8026C18.5514 26.6334 18.7865 26.3589 18.9641 26.0537C17.8012 25.4955 16.7849 24.7059 15.9483 23.7424L5.67444 28.8698C2.53044 30.4536 0.499817 33.7459 0.499817 37.2561V51.3754C0.499817 52.4117 1.3385 53.2504 2.37482 53.2504H43.625C44.6613 53.2504 45.5 52.4117 45.5 51.3754V37.2561C45.5 33.7459 43.4694 30.4536 40.3181 28.866Z" fill="#2AA7FF"/>
<path d="M13.625 42H9.875C8.83869 42 8 41.1613 8 40.125C8 39.0887 8.83869 38.25 9.875 38.25H13.625C14.6613 38.25 15.5 39.0887 15.5 40.125C15.5 41.1613 14.6613 42 13.625 42Z" fill="#2AA7FF"/>
<path d="M32.375 11.9367C25.3936 11.5168 22.4634 8.81047 22.4506 8.7996C22.0276 8.37303 21.4289 8.17522 20.8246 8.27403C20.2295 8.37116 19.7169 8.74822 19.4476 9.28653L18.1183 11.9453C17.1697 11.872 15.7049 11.709 14.0368 11.3337C13.8965 11.3023 13.7623 11.3245 13.6248 11.3247V15.0762C16.7544 15.7343 19.1463 15.75 19.2498 15.75C19.9603 15.75 20.6084 15.349 20.927 14.7137L21.8315 12.9047C23.7669 14.0162 27.1507 15.4041 32.2704 15.6898C32.3068 15.6912 32.3386 15.6741 32.3748 15.6733L32.375 11.9367Z" fill="#2AA7FF"/>
<path d="M23 28.875C16.7964 28.875 11.75 23.8286 11.75 17.625V12C11.75 5.79638 16.7964 0.75 23 0.75C29.2036 0.75 34.25 5.79638 34.25 12V17.625C34.25 23.8286 29.2036 28.875 23 28.875ZM23 4.5C18.8636 4.5 15.5 7.86356 15.5 12V17.625C15.5 21.7614 18.8636 25.125 23 25.125C27.1364 25.125 30.5 21.7614 30.5 17.625V12C30.5 7.86356 27.1364 4.5 23 4.5Z" fill="#2AA7FF"/>
</svg>
