<svg width="80" height="80" viewBox="0 0 80 80" fill="none" xmlns="http://www.w3.org/2000/svg">
<path d="M43.4473 67.9688C42.7686 67.9688 42.1216 67.6928 41.6503 67.207L16.7773 41.4868C10.2296 34.7118 10.3223 23.7818 16.9823 17.119C23.0591 11.0423 32.8221 10.349 39.6923 15.5053L43.4473 18.3203L47.1973 15.5053C54.0773 10.3515 63.8378 11.0448 69.9098 17.119C76.5723 23.7815 76.6651 34.7118 70.1148 41.4868L45.2443 67.207C44.7731 67.6928 44.1261 67.9688 43.4473 67.9688ZM29.2848 17.0483C26.0866 17.0483 22.9031 18.269 20.5178 20.6543C15.7741 25.4003 15.7083 33.186 20.3713 38.0103L43.4476 61.8725L66.5213 38.0103C71.1868 33.186 71.1208 25.4005 66.3748 20.6543C62.0486 16.3258 55.0931 15.8373 50.1981 19.5043L44.9491 23.4448C44.0603 24.1138 42.8373 24.1138 41.9486 23.4448L36.6946 19.5043C34.4973 17.8563 31.8851 17.0483 29.2848 17.0483Z" fill="#2AA7FF"/>
<path d="M42.5 52.5001C42.4415 52.5001 42.3827 52.4976 42.3217 52.4928C41.3135 52.4221 40.4492 51.7506 40.1292 50.7911L34.7875 34.7656L32.3217 40.9276C31.941 41.8773 31.023 42.4998 30 42.4998H7.5C6.11825 42.4998 5 41.3816 5 39.9998C5 38.6181 6.11825 37.4998 7.5 37.4998H28.308L32.678 26.5721C33.0685 25.5981 34.0525 24.9926 35.073 24.9998C36.1227 25.0316 37.0407 25.7151 37.3702 26.7088L42.9635 43.4838L45.2632 38.8818C45.688 38.0346 46.5522 37.5001 47.4995 37.5001H54.9995C56.3812 37.5001 57.4995 38.6183 57.4995 40.0001C57.4995 41.3818 56.3812 42.5001 54.9995 42.5001H49.045L44.736 51.1183C44.3112 51.9703 43.4422 52.5001 42.5 52.5001Z" fill="#2AA7FF"/>
</svg>
