<svg width="60" height="60" viewBox="0 0 60 60" fill="none" xmlns="http://www.w3.org/2000/svg">
<path d="M22.0444 19.3939L19.3932 22.0454L37.9556 40.6061L40.6069 37.9546L22.0444 19.3939Z" fill="#2AA7FF"/>
<path d="M18.0669 56.9321C14.0606 56.9321 10.2941 55.3721 7.46152 52.5384C4.62708 49.7059 3.06689 45.9394 3.06689 41.9321C3.06689 37.9258 4.62689 34.1584 7.46152 31.3258L31.3256 7.46156C34.1581 4.62806 37.9246 3.06787 41.9328 3.06787C45.941 3.06787 49.7056 4.62787 52.5384 7.46156C55.3728 10.2941 56.933 14.0606 56.933 18.0679C56.933 22.0751 55.373 25.8416 52.5384 28.6742L28.6743 52.5382C25.8418 55.3717 22.0751 56.9321 18.0669 56.9321ZM41.933 6.81787C38.9265 6.81787 36.101 7.98787 33.977 10.1128L10.113 33.9771C7.98708 36.102 6.81708 38.9272 6.81708 41.9321C6.81708 44.937 7.98708 47.7622 10.113 49.8872C12.237 52.0121 15.0622 53.1821 18.0671 53.1821C21.0736 53.1821 23.8991 52.0121 26.0231 49.8872L49.8871 26.0231C52.013 23.8982 53.183 21.0729 53.183 18.0681C53.183 15.0632 52.013 12.2379 49.8871 10.113C47.7631 7.98806 44.9379 6.81787 41.933 6.81787Z" fill="#2AA7FF"/>
<path d="M36.6284 17.2905C36.1486 17.2905 35.669 17.1073 35.3028 16.7411C34.5704 16.0087 34.5704 14.8222 35.3028 14.0897L36.6284 12.764C38.7635 10.6273 41.9531 9.98266 44.7547 11.1189C45.7141 11.508 46.1756 12.6011 45.7874 13.5605C45.3993 14.5209 44.3006 14.9795 43.3449 14.5942C41.9441 14.0276 40.3492 14.3497 39.2799 15.4164L37.9543 16.7411C37.5881 17.1073 37.1081 17.2905 36.6284 17.2905Z" fill="#2AA7FF"/>
</svg>
