<svg width="82" height="80" viewBox="0 0 82 80" fill="none" xmlns="http://www.w3.org/2000/svg">
<path d="M73.9062 75H8.09375C6.69599 75 5.5625 73.8805 5.5625 72.5V7.5C5.5625 6.1195 6.69599 5 8.09375 5H73.9062C75.304 5 76.4375 6.1195 76.4375 7.5V72.5C76.4375 73.8805 75.304 75 73.9062 75ZM10.625 70H71.375V10H10.625V70Z" fill="#2AA7FF"/>
<path d="M18.2188 20C19.6167 20 20.75 18.8807 20.75 17.5C20.75 16.1193 19.6167 15 18.2188 15C16.8208 15 15.6875 16.1193 15.6875 17.5C15.6875 18.8807 16.8208 20 18.2188 20Z" fill="#2AA7FF"/>
<path d="M30.7082 65.0973C28.4402 65.0973 26.171 64.244 24.4444 62.5388C23.3284 61.4365 22.5472 60.0875 22.1516 58.6155C20.6609 58.225 19.2953 57.4535 18.1793 56.351C14.7249 52.9403 14.7249 47.3885 18.1793 43.9781C20.8305 41.3573 24.7583 40.7323 28.0385 42.1933L43.221 27.1983C41.7414 23.9598 42.3743 20.0816 45.0255 17.4608C48.4849 14.0491 54.1036 14.0513 57.5557 17.4608C58.6704 18.5618 59.4516 19.9108 59.8485 21.3841C61.3391 21.7746 62.7047 22.5461 63.8208 23.6486C67.2752 27.0593 67.2752 32.611 63.8208 36.0215C61.166 38.64 57.2405 39.2651 53.9616 37.8063L38.7791 52.8013C40.2574 56.0398 39.6246 59.9193 36.9721 62.5388C35.2455 64.244 32.9762 65.0973 30.7082 65.0973ZM24.411 46.4278C23.4458 46.4278 22.4877 46.7928 21.7585 47.513C20.279 48.9755 20.279 51.3533 21.7585 52.8158C22.4642 53.5116 23.4048 53.8998 24.4072 53.9083C25.789 53.9205 26.905 55.0228 26.9174 56.3876C26.926 57.3776 27.3191 58.3065 28.0236 59.0036C29.5044 60.466 31.9118 60.466 33.3926 59.0036C34.7633 57.6486 34.8635 55.4988 33.625 54.0011C32.8031 53.0063 32.876 51.5583 33.7956 50.6515L51.7849 32.8843C52.7045 31.9748 54.1691 31.9053 55.1763 32.7158C56.6953 33.9451 58.8742 33.8401 60.2413 32.4863C61.7208 31.0238 61.7208 28.6461 60.2413 27.1835C59.5356 26.4878 58.595 26.0996 57.5926 26.0911C56.2121 26.0788 55.0948 24.9778 55.0824 23.6143C55.0738 22.6218 54.6807 21.6918 53.9762 20.9958C52.4955 19.5333 50.0867 19.5346 48.6059 20.9971C47.2353 22.3508 47.135 24.5018 48.3748 25.9983C49.1967 26.9921 49.1238 28.4398 48.2042 29.3478L30.2149 47.1151C29.294 48.0246 27.8269 48.0916 26.8235 47.2836C26.114 46.7098 25.2587 46.4278 24.411 46.4278Z" fill="#2AA7FF"/>
<path d="M63.7812 65H53.6562C52.2585 65 51.125 63.8805 51.125 62.5C51.125 61.1195 52.2585 60 53.6562 60H63.7812C65.179 60 66.3125 61.1195 66.3125 62.5C66.3125 63.8805 65.179 65 63.7812 65Z" fill="#2AA7FF"/>
<path d="M63.7812 55H58.7188C57.321 55 56.1875 53.8805 56.1875 52.5C56.1875 51.1195 57.321 50 58.7188 50H63.7812C65.179 50 66.3125 51.1195 66.3125 52.5C66.3125 53.8805 65.179 55 63.7812 55Z" fill="#2AA7FF"/>
</svg>
